<svg width="49" height="49" viewBox="0 0 49 49" fill="none" xmlns="http://www.w3.org/2000/svg">
<path d="M45.3045 24.4999L40.8741 31.2782L39.2203 39.2203L31.2782 40.8945L24.4999 45.3045L17.7216 40.8945L9.77948 39.2203L8.12573 31.2782L3.69531 24.4999L8.12573 17.7216L9.77948 9.77948L17.7216 8.10531L24.4999 3.69531L31.2782 8.10531L39.2203 9.77948L40.8741 17.7216L45.3045 24.4999Z" fill="url(#paint0_radial_1345_2223)"/>
<path d="M35.3118 13.8183L27.3252 24.4709L29.4557 26.0683L37.4424 15.4156L35.3118 13.8183Z" fill="#2C5B42"/>
<path d="M37.045 25.2726C38.1479 25.2726 39.0421 24.3784 39.0421 23.2754C39.0421 22.1725 38.1479 21.2783 37.045 21.2783C35.942 21.2783 35.0479 22.1725 35.0479 23.2754C35.0479 24.3784 35.942 25.2726 37.045 25.2726Z" fill="#2C5B42"/>
<path d="M27.7247 18.6156C28.8276 18.6156 29.7218 17.7214 29.7218 16.6185C29.7218 15.5155 28.8276 14.6213 27.7247 14.6213C26.6217 14.6213 25.7275 15.5155 25.7275 16.6185C25.7275 17.7214 26.6217 18.6156 27.7247 18.6156Z" fill="#2C5B42"/>
<path d="M11.8975 24V22.7812L14.7451 20.1445C14.9873 19.9102 15.1904 19.6992 15.3545 19.5117C15.5212 19.3242 15.6475 19.1406 15.7334 18.9609C15.8193 18.7786 15.8623 18.582 15.8623 18.3711C15.8623 18.1367 15.8089 17.9349 15.7021 17.7656C15.5954 17.5937 15.4495 17.4622 15.2646 17.3711C15.0798 17.2773 14.8701 17.2305 14.6357 17.2305C14.391 17.2305 14.1774 17.2799 13.9951 17.3789C13.8128 17.4779 13.6722 17.6198 13.5732 17.8047C13.4743 17.9896 13.4248 18.2096 13.4248 18.4648H11.8193C11.8193 17.9414 11.9378 17.487 12.1748 17.1016C12.4118 16.7161 12.7438 16.418 13.1709 16.207C13.598 15.9961 14.0902 15.8906 14.6475 15.8906C15.2204 15.8906 15.7191 15.9922 16.1436 16.1953C16.5706 16.3958 16.9027 16.6745 17.1396 17.0312C17.3766 17.388 17.4951 17.7969 17.4951 18.2578C17.4951 18.5599 17.4352 18.8581 17.3154 19.1523C17.1982 19.4466 16.9886 19.7734 16.6865 20.1328C16.3844 20.4896 15.9587 20.918 15.4092 21.418L14.2412 22.5625V22.6172H17.6006V24H11.8975ZM21.9629 24.1758C21.291 24.1732 20.7129 24.0078 20.2285 23.6797C19.7467 23.3516 19.3757 22.8763 19.1152 22.2539C18.8574 21.6315 18.7298 20.8828 18.7324 20.0078C18.7324 19.1354 18.8613 18.3919 19.1191 17.7773C19.3796 17.1628 19.7507 16.6953 20.2324 16.375C20.7168 16.0521 21.2936 15.8906 21.9629 15.8906C22.6322 15.8906 23.2077 16.0521 23.6895 16.375C24.1738 16.6979 24.5462 17.1667 24.8066 17.7812C25.0671 18.3932 25.196 19.1354 25.1934 20.0078C25.1934 20.8854 25.0632 21.6354 24.8027 22.2578C24.5449 22.8802 24.1751 23.3555 23.6934 23.6836C23.2116 24.0117 22.6348 24.1758 21.9629 24.1758ZM21.9629 22.7734C22.4212 22.7734 22.7871 22.543 23.0605 22.082C23.334 21.6211 23.4694 20.9297 23.4668 20.0078C23.4668 19.401 23.4043 18.8958 23.2793 18.4922C23.1569 18.0885 22.9824 17.7852 22.7559 17.582C22.5319 17.3789 22.2676 17.2773 21.9629 17.2773C21.5072 17.2773 21.1426 17.5052 20.8691 17.9609C20.5957 18.4167 20.4577 19.099 20.4551 20.0078C20.4551 20.6224 20.5163 21.1354 20.6387 21.5469C20.7637 21.9557 20.9395 22.263 21.166 22.4687C21.3926 22.6719 21.6582 22.7734 21.9629 22.7734Z" fill="#2C5B42"/>
<path d="M22.5015 32C22.5015 32.8724 22.3361 33.6146 22.0054 34.2266C21.6772 34.8385 21.2293 35.306 20.6616 35.6289C20.0965 35.9492 19.4611 36.1094 18.7554 36.1094C18.0444 36.1094 17.4064 35.9479 16.8413 35.625C16.2762 35.3021 15.8296 34.8346 15.5015 34.2227C15.1733 33.6107 15.0093 32.8698 15.0093 32C15.0093 31.1276 15.1733 30.3854 15.5015 29.7734C15.8296 29.1615 16.2762 28.6953 16.8413 28.375C17.4064 28.0521 18.0444 27.8906 18.7554 27.8906C19.4611 27.8906 20.0965 28.0521 20.6616 28.375C21.2293 28.6953 21.6772 29.1615 22.0054 29.7734C22.3361 30.3854 22.5015 31.1276 22.5015 32ZM20.7866 32C20.7866 31.4349 20.702 30.9583 20.5327 30.5703C20.366 30.1823 20.1304 29.888 19.8257 29.6875C19.521 29.487 19.1642 29.3867 18.7554 29.3867C18.3465 29.3867 17.9897 29.487 17.6851 29.6875C17.3804 29.888 17.1434 30.1823 16.9741 30.5703C16.8075 30.9583 16.7241 31.4349 16.7241 32C16.7241 32.5651 16.8075 33.0417 16.9741 33.4297C17.1434 33.8177 17.3804 34.112 17.6851 34.3125C17.9897 34.513 18.3465 34.6133 18.7554 34.6133C19.1642 34.6133 19.521 34.513 19.8257 34.3125C20.1304 34.112 20.366 33.8177 20.5327 33.4297C20.702 33.0417 20.7866 32.5651 20.7866 32ZM26.9497 30V31.25H23.2466V30H26.9497ZM24.0942 36V29.5664C24.0942 29.1315 24.1789 28.7708 24.3481 28.4844C24.52 28.1979 24.7544 27.9831 25.0513 27.8398C25.3481 27.6966 25.6854 27.625 26.063 27.625C26.3182 27.625 26.5513 27.6445 26.7622 27.6836C26.9757 27.7227 27.1346 27.7578 27.2388 27.7891L26.9419 29.0391C26.8768 29.0182 26.7961 28.9987 26.6997 28.9805C26.606 28.9622 26.5096 28.9531 26.4106 28.9531C26.1659 28.9531 25.9953 29.0104 25.8989 29.125C25.8026 29.237 25.7544 29.3945 25.7544 29.5977V36H24.0942ZM31.1929 30V31.25H27.4897V30H31.1929ZM28.3374 36V29.5664C28.3374 29.1315 28.422 28.7708 28.5913 28.4844C28.7632 28.1979 28.9976 27.9831 29.2944 27.8398C29.5913 27.6966 29.9285 27.625 30.3062 27.625C30.5614 27.625 30.7944 27.6445 31.0054 27.6836C31.2189 27.7227 31.3778 27.7578 31.4819 27.7891L31.1851 29.0391C31.12 29.0182 31.0392 28.9987 30.9429 28.9805C30.8491 28.9622 30.7528 28.9531 30.6538 28.9531C30.409 28.9531 30.2384 29.0104 30.1421 29.125C30.0457 29.237 29.9976 29.3945 29.9976 29.5977V36H28.3374Z" fill="#2C5B42"/>
<defs>
<radialGradient id="paint0_radial_1345_2223" cx="0" cy="0" r="1" gradientUnits="userSpaceOnUse" gradientTransform="translate(3.65448 44.9982) scale(55.5742)">
<stop offset="0.03" stop-color="#8EC09E"/>
<stop offset="1" stop-color="#C2FFDF"/>
</radialGradient>
</defs>
</svg>
